<?xml version="1.0" standalone="no"?>
<!DOCTYPE svg PUBLIC "-//W3C//DTD SVG 20010904//EN"
 "http://www.w3.org/TR/2001/REC-SVG-20010904/DTD/svg10.dtd">
<svg version="1.0" xmlns="http://www.w3.org/2000/svg"
 width="500.000000pt" height="87.000000pt" viewBox="0 0 500.000000 87.000000"
 preserveAspectRatio="xMidYMid meet">

<g transform="translate(0.000000,87.000000) scale(0.100000,-0.100000)"
fill="#000000" stroke="none">
<path d="M2590 445 c0 -277 3 -425 10 -425 7 0 10 148 10 425 0 277 -3 425
-10 425 -7 0 -10 -148 -10 -425z"/>
<path d="M60 836 c0 -2 -13 -143 -30 -313 -21 -217 -27 -319 -20 -341 23 -82
81 -136 178 -168 103 -33 223 4 299 91 31 34 35 37 29 15 -3 -14 -9 -42 -12
-62 l-7 -38 111 0 110 0 6 27 c3 16 17 114 31 218 15 105 29 197 32 205 6 13
30 -295 32 -407 l1 -43 90 0 89 0 15 52 c9 29 38 134 66 233 l50 180 -5 -180
c-3 -99 -8 -204 -12 -233 l-5 -52 187 2 188 3 14 48 14 47 69 0 70 0 0 -51 0
-50 258 3 257 3 59 29 c147 72 219 217 219 441 0 165 -51 257 -172 314 -52 24
-66 26 -206 26 l-150 0 -26 -280 c-15 -154 -28 -282 -29 -285 -1 -3 -19 123
-39 280 l-36 285 -125 0 -125 0 -95 -287 c-52 -158 -99 -287 -103 -288 -4 0
-7 129 -7 288 l1 287 -127 0 -126 0 -57 -202 c-31 -111 -59 -205 -63 -208 -3
-3 -8 68 -12 157 -4 90 -10 184 -13 211 l-6 47 -127 0 -127 0 -48 -222 c-27
-123 -53 -227 -58 -233 -5 -6 -6 4 -3 25 6 37 36 377 36 411 0 18 -8 19 -104
19 l-104 0 -6 -37 c-3 -21 -15 -148 -27 -283 -12 -135 -26 -256 -33 -270 -9
-20 -19 -25 -46 -25 -62 0 -63 16 -35 310 14 141 25 268 25 281 0 24 -1 24
-105 24 -58 0 -105 -2 -105 -4z m2123 -256 c57 -67 42 -245 -26 -318 -22 -23
-76 -57 -82 -50 -1 2 6 89 16 193 10 105 19 193 19 198 0 19 50 4 73 -23z
m-537 -277 c-6 -16 -86 -18 -86 -3 0 13 69 259 78 280 8 17 15 -257 8 -277z"/>
<path d="M2412 828 c-28 -28 -7 -78 33 -78 24 0 55 29 55 51 0 35 -61 54 -88
27z m27 -30 c1 21 5 31 12 27 6 -4 8 -13 6 -19 -3 -7 -1 -19 4 -27 6 -9 8 -3
5 19 -4 36 9 43 19 11 10 -30 -16 -53 -49 -45 -19 5 -26 13 -26 30 0 37 14 41
21 4 l6 -33 2 33z"/>
<path d="M4010 758 c-13 -8 -29 -26 -34 -41 -13 -37 12 -61 83 -79 68 -16 86
-41 52 -69 -30 -25 -72 -24 -105 2 -33 26 -57 12 -27 -15 45 -41 132 -37 165
7 19 26 19 30 5 55 -11 21 -29 31 -73 42 -66 17 -88 39 -66 65 14 17 63 17
120 0 l25 -8 -21 22 c-26 27 -90 37 -124 19z"/>
<path d="M2690 670 c0 -83 2 -93 25 -115 35 -36 102 -35 136 1 21 22 24 37 27
115 3 76 2 89 -12 89 -13 0 -16 -14 -16 -83 0 -70 -3 -87 -20 -105 -26 -27
-60 -28 -91 -3 -22 17 -24 27 -24 105 0 62 -3 86 -12 86 -10 0 -13 -25 -13
-90z"/>
<path d="M2940 645 c0 -98 2 -115 16 -115 13 0 15 13 12 85 -2 47 0 84 3 83 4
-2 37 -40 73 -85 37 -46 71 -83 76 -83 6 0 10 48 10 115 0 94 -3 115 -15 115
-11 0 -15 -18 -17 -85 l-3 -84 -68 84 c-37 47 -72 85 -77 85 -6 0 -10 -47 -10
-115z"/>
<path d="M3190 645 c0 -96 3 -115 15 -115 12 0 15 19 15 115 0 96 -3 115 -15
115 -12 0 -15 -19 -15 -115z"/>
<path d="M3309 648 c61 -148 69 -148 127 -3 24 60 44 110 44 112 0 2 -6 3 -14
3 -9 0 -29 -38 -52 -95 -21 -53 -41 -92 -44 -88 -4 5 -23 47 -41 95 -24 61
-39 88 -50 88 -14 0 -8 -20 30 -112z"/>
<path d="M3520 645 l0 -115 85 0 c69 0 85 3 85 15 0 12 -14 15 -70 15 l-70 0
0 40 0 40 65 0 c37 0 65 4 65 10 0 6 -28 10 -65 10 l-65 0 0 40 0 40 70 0 c40
0 70 4 70 10 0 6 -35 10 -85 10 l-85 0 0 -115z"/>
<path d="M3740 645 c0 -96 3 -115 15 -115 11 0 15 11 15 40 0 38 2 40 30 40
22 0 39 -10 66 -40 51 -56 77 -53 31 3 l-35 43 28 11 c39 15 50 65 23 102 -18
24 -27 26 -97 29 l-76 3 0 -116z m145 75 c15 -16 17 -26 9 -48 -9 -25 -15 -27
-67 -30 l-57 -3 0 51 0 50 48 0 c36 0 54 -5 67 -20z"/>
<path d="M4200 645 c0 -96 3 -115 15 -115 12 0 15 19 15 115 0 96 -3 115 -15
115 -12 0 -15 -19 -15 -115z"/>
<path d="M4298 645 l3 -115 57 0 c39 0 67 6 89 20 63 38 66 142 6 190 -20 15
-41 20 -92 20 l-66 0 3 -115z m149 60 c27 -30 29 -64 8 -104 -17 -34 -33 -41
-91 -41 l-44 0 0 83 c0 46 3 87 8 91 4 4 27 6 52 3 32 -4 51 -13 67 -32z"/>
<path d="M4563 645 c-37 -82 -47 -115 -37 -115 8 0 20 11 26 25 10 23 16 25
80 25 63 0 69 -2 80 -25 6 -14 17 -25 25 -25 7 0 13 1 13 3 0 2 -22 53 -49
113 -66 148 -72 148 -138 -1z m74 -33 c-27 -2 -51 -1 -53 1 -2 2 8 30 22 63
l26 59 27 -60 27 -60 -49 -3z"/>
<path d="M4790 645 l0 -115 66 0 c62 0 68 2 100 34 27 27 34 42 34 75 0 86
-40 121 -140 121 l-60 0 0 -115z m129 80 c52 -26 60 -96 18 -142 -16 -18 -31
-23 -69 -23 l-48 0 0 90 0 90 35 0 c20 0 49 -7 64 -15z"/>
<path d="M4739 427 c-58 -31 -89 -84 -89 -155 0 -105 54 -169 153 -179 103
-11 179 49 193 149 21 150 -125 254 -257 185z m135 -49 c73 -33 84 -156 19
-208 -17 -13 -41 -20 -69 -20 -60 0 -103 38 -111 97 -14 103 71 173 161 131z"/>
<path d="M2680 270 l0 -170 35 0 34 0 3 121 3 120 50 -70 c28 -39 55 -71 60
-71 6 1 33 32 60 70 28 38 52 70 55 70 3 0 4 -54 2 -120 l-3 -120 35 0 36 0 0
170 0 170 -38 0 c-37 0 -42 -4 -88 -70 -27 -38 -52 -69 -56 -70 -4 0 -31 32
-59 70 -48 66 -53 70 -90 70 l-39 0 0 -170z"/>
<path d="M3188 270 l-76 -170 34 0 c27 0 36 6 49 30 15 30 16 30 105 30 89 0
90 0 105 -30 13 -24 22 -30 49 -30 l34 0 -76 170 -75 170 -37 0 -36 0 -76
-170z m145 28 c15 -35 27 -66 27 -70 0 -5 -27 -8 -60 -8 -33 0 -60 2 -60 5 0
12 54 135 60 135 3 0 18 -28 33 -62z"/>
<path d="M3560 270 l0 -170 90 0 c135 0 187 30 211 120 14 55 6 106 -24 151
-35 53 -77 69 -184 69 l-93 0 0 -170z m203 90 c36 -29 52 -81 37 -125 -17 -52
-53 -75 -116 -75 l-54 0 0 110 0 110 54 0 c38 0 60 -6 79 -20z"/>
<path d="M3950 270 l0 -170 130 0 130 0 0 30 0 30 -100 0 -100 0 0 40 0 40 95
0 95 0 0 30 0 30 -95 0 -95 0 0 40 0 40 100 0 100 0 0 30 0 30 -130 0 -130 0
0 -170z"/>
<path d="M4290 271 l0 -171 35 0 35 0 0 55 0 55 33 0 c28 0 40 -9 77 -55 42
-50 48 -54 89 -55 l44 0 -52 54 c-28 30 -51 57 -51 60 0 3 13 12 29 20 57 30
66 125 16 175 -24 24 -33 26 -140 29 l-115 4 0 -171z m214 87 c21 -30 20 -44
-4 -68 -16 -16 -33 -20 -80 -20 l-60 0 0 55 0 55 64 0 c56 0 67 -3 80 -22z"/>
</g>
</svg>
